# xmcd
# 
# Track frame offsets:
#     150
#     11990
#     25150
#     38320
#     53475
#     72432
#     85125
#     96832
#     108095
#     123882
#     137035
#     150607
#     166534
# 
# Disc length: 2356
# 
# Revision: 1
# Processed by: cddbd v1.5.2PL0 Copyright (c) Steve Scherf et al.
# Submitted via: BonkEnc v1.0.8
# 
DISCID=9109320d
DTITLE=The Plimsouls - One Night in America - Live 1981
DYEAR=1981
DGENRE=Rock
TTITLE0=Hush Hush
TTITLE1=Now
TTITLE2=How Long Will It Take
TTITLE3=I Want What You Got
TTITLE4=A Million Miles Away
TTITLE5=Time Won't Let Me
TTITLE6=In This Town
TTITLE7=One More Heartache
TTITLE8=Help Yourself
TTITLE9=Dizzy Miss Lizzy
TTITLE10=I'll Get Lucky
TTITLE11=Come On Now
TTITLE12=Sorry
EXTD=
EXTT0=
EXTT1=
EXTT2=
EXTT3=
EXTT4=
EXTT5=
EXTT6=
EXTT7=
EXTT8=
EXTT9=
EXTT10=
EXTT11=
EXTT12=
PLAYORDER=
